<?xml version="1.0" standalone="no"?>
<!DOCTYPE svg PUBLIC "-//W3C//DTD SVG 20010904//EN"
 "http://www.w3.org/TR/2001/REC-SVG-20010904/DTD/svg10.dtd">
<svg version="1.0" xmlns="http://www.w3.org/2000/svg"
 width="200.000000pt" height="200.000000pt" viewBox="0 0 200.000000 200.000000"
 preserveAspectRatio="xMidYMid meet">
<metadata>
Created by potrace 1.11, written by Peter Selinger 2001-2013
</metadata>
<g transform="translate(0.000000,200.000000) scale(0.100000,-0.100000)"
fill="#000000" stroke="none">
<path d="M500 1742 c-41 -21 -54 -33 -55 -51 -2 -30 -88 -112 -162 -156 -26
-15 -35 -32 -63 -124 -30 -99 -32 -116 -33 -261 -1 -160 14 -255 48 -303 8
-12 15 -34 15 -49 0 -16 5 -37 12 -47 9 -15 8 -27 -3 -57 l-15 -39 -122 -3
-122 -3 0 -324 0 -325 834 0 833 0 -5 25 c-2 14 -8 25 -13 25 -5 0 -9 5 -9 10
0 6 8 10 18 8 14 -2 18 6 20 41 l3 44 91 -7 c51 -4 95 -9 100 -12 4 -3 8 -19
8 -36 0 -45 9 -29 19 30 5 34 4 55 -3 62 -8 8 -7 13 4 20 8 5 11 12 7 16 -4 4
-13 0 -20 -10 -11 -15 -24 -17 -109 -10 l-96 7 -28 55 c-24 47 -35 59 -75 75
-32 14 -45 25 -42 34 3 8 -3 20 -13 28 -39 30 -162 83 -206 90 -41 6 -47 5
-53 -14 -3 -11 -3 -25 0 -31 3 -5 2 -10 -4 -10 -6 0 -15 -19 -21 -41 -12 -45
-58 -99 -69 -82 -8 14 -86 15 -119 1 -15 -5 -37 -12 -50 -14 -34 -7 -106 47
-131 99 -33 68 -56 87 -103 87 -35 0 -46 6 -80 42 -79 86 -91 106 -79 136 13
32 11 46 -12 89 -9 18 -17 48 -17 68 0 21 -6 38 -14 41 -11 4 -11 14 1 62 34
136 43 186 46 272 3 91 4 93 38 121 42 37 122 75 172 84 20 4 51 20 68 36 34
32 45 35 51 17 6 -17 28 0 28 23 0 27 12 24 45 -11 17 -17 35 -28 44 -25 9 3
29 -2 45 -10 16 -9 31 -13 33 -11 10 10 -9 46 -40 77 -18 18 -25 29 -14 25 9
-3 25 -9 35 -13 13 -5 11 0 -7 20 -13 15 -32 29 -43 33 -32 10 -19 23 17 17
39 -6 45 5 17 30 -20 18 -52 22 -68 9 -11 -10 -85 -32 -108 -32 -30 0 -8 17
39 30 56 16 64 26 25 34 -31 6 -42 26 -15 26 8 0 15 4 15 9 0 6 17 12 38 14
20 3 -10 2 -68 0 -69 -3 -113 -9 -128 -19 -28 -18 -64 -10 -55 13 5 13 1 15
-18 11 -13 -3 -32 -9 -41 -13 -13 -5 -18 -3 -18 9 0 12 -10 16 -35 16 -23 0
-38 6 -42 16 -3 8 -12 13 -21 9 -8 -3 -22 1 -31 9 -15 14 -23 12 -71 -12z
m540 -182 c0 -5 -9 -10 -21 -10 -11 0 -17 5 -14 10 3 6 13 10 21 10 8 0 14 -4
14 -10z m-698 -744 c2 -21 14 -36 45 -58 41 -28 62 -57 77 -105 6 -19 4 -23
-14 -23 -37 0 -76 30 -114 88 -23 35 -36 66 -35 86 0 29 1 29 9 9 5 -13 12
-23 15 -23 4 0 3 5 0 10 -7 11 4 55 11 47 2 -2 5 -16 6 -31z m1253 -496 c3 -6
-1 -7 -9 -4 -18 7 -21 14 -7 14 6 0 13 -4 16 -10z"/>
<path d="M1207 1519 c7 -7 15 -10 18 -7 3 3 -2 9 -12 12 -14 6 -15 5 -6 -5z"/>
<path d="M1240 1485 c0 -4 4 -14 10 -24 18 -35 29 -101 16 -108 -6 -3 -8 -3
-4 1 7 8 -39 56 -53 56 -12 0 -11 -2 6 -43 8 -20 24 -41 35 -47 13 -7 19 -18
16 -28 -3 -9 1 -28 9 -42 13 -23 14 -23 16 -5 4 68 -5 184 -17 207 -13 26 -34
46 -34 33z"/>
<path d="M1183 1160 c-39 -23 -46 -56 -10 -45 12 3 37 10 55 15 41 10 46 15
39 35 -9 21 -46 19 -84 -5z"/>
<path d="M775 1135 c-16 -9 -43 -23 -59 -32 -20 -10 -25 -18 -17 -26 7 -7 30
-7 79 3 50 9 84 10 125 3 52 -9 57 -8 63 10 10 31 -16 46 -91 52 -55 5 -77 3
-100 -10z"/>
<path d="M1218 1038 c12 -6 22 -15 22 -20 0 -4 7 -8 16 -8 11 0 14 5 10 16 -3
9 -6 18 -6 20 0 2 -15 4 -32 3 -31 0 -32 -1 -10 -11z"/>
<path d="M1142 1028 c-7 -7 -12 -20 -12 -30 0 -13 8 -18 30 -18 27 0 30 3 30
30 0 22 -5 30 -18 30 -10 0 -23 -5 -30 -12z"/>
<path d="M849 1005 c-2 -2 -19 -5 -37 -8 -37 -6 -115 -53 -108 -65 4 -7 130 4
164 14 8 2 11 11 7 24 -8 26 7 26 30 0 18 -20 45 -27 45 -12 0 22 -86 62 -101
47z"/>
<path d="M1385 809 c-10 -15 3 -25 16 -12 7 7 7 13 1 17 -6 3 -14 1 -17 -5z"/>
<path d="M1435 811 c-3 -5 -1 -12 5 -16 5 -3 10 1 10 9 0 18 -6 21 -15 7z"/>
<path d="M1490 799 c0 -5 5 -7 10 -4 6 3 10 8 10 11 0 2 -4 4 -10 4 -5 0 -10
-5 -10 -11z"/>
<path d="M1541 794 c0 -11 3 -14 6 -6 3 7 2 16 -1 19 -3 4 -6 -2 -5 -13z"/>
<path d="M1338 729 c-2 -22 -1 -42 3 -45 4 -2 55 -6 114 -9 132 -6 151 -11
160 -38 l8 -22 4 23 c4 22 7 23 81 18 206 -15 232 -19 232 -30 0 -6 -5 -39
-10 -72 -6 -34 -11 -73 -12 -88 -2 -22 -7 -26 -33 -26 -28 0 -282 22 -400 35
-46 5 -48 4 -31 -10 11 -8 39 -15 62 -15 58 0 72 -7 67 -33 -4 -25 12 -55 23
-44 4 4 7 21 7 38 l0 30 88 -7 c207 -16 204 -15 206 -51 1 -34 -3 -37 -46 -33
-36 3 -20 -23 20 -31 33 -7 54 5 42 23 -2 5 1 15 7 23 7 8 10 22 6 30 -4 12 2
15 29 15 41 0 47 17 8 22 -26 3 -28 6 -25 48 6 121 13 150 33 150 16 0 19 7
19 50 0 28 -1 50 -2 51 -2 0 -59 3 -128 5 -69 3 -213 11 -320 19 -107 8 -198
15 -201 15 -4 0 -9 -18 -11 -41z"/>
<path d="M960 711 c0 -32 49 -60 85 -49 17 5 39 11 49 13 11 3 26 11 35 19 12
13 11 16 -14 22 -15 4 -47 2 -71 -3 -34 -8 -46 -7 -55 3 -16 20 -29 17 -29 -5z"/>
<path d="M1130 598 c-114 -23 -174 -29 -207 -23 -37 7 -53 -3 -53 -36 0 -21
91 -61 154 -67 45 -4 50 -3 38 11 -9 11 -10 17 -2 22 8 5 5 11 -7 21 -16 12
-15 13 18 14 20 0 39 3 43 7 11 11 79 33 104 33 12 0 22 6 22 14 0 15 -48 17
-110 4z"/>
<path d="M1510 550 c0 -5 5 -10 11 -10 5 0 7 5 4 10 -3 6 -8 10 -11 10 -2 0
-4 -4 -4 -10z"/>
<path d="M1450 510 c7 -14 21 -20 43 -20 l32 1 -39 19 c-49 25 -49 25 -36 0z"/>
<path d="M1400 510 c0 -5 5 -10 10 -10 6 0 10 5 10 10 0 6 -4 10 -10 10 -5 0
-10 -4 -10 -10z"/>
<path d="M1968 225 c-3 -3 -2 -25 3 -49 5 -26 4 -58 -1 -78 -13 -42 -12 -51 0
-43 6 3 10 -1 10 -9 0 -9 -4 -16 -10 -16 -5 0 -10 -7 -10 -15 0 -8 9 -15 20
-15 19 0 20 7 20 115 0 89 -3 115 -13 115 -8 0 -16 -2 -19 -5z"/>
</g>
</svg>
